# AST/ASF file generated using VICON BodyLanguage
# -----------------------------------------------
:version 1.10
:name VICON
:units
  mass 1.0
  length 0.45
  angle deg
:documentation
   .ast/.asf automatically generated from VICON data using
   VICON BodyBuilder and BodyLanguage model FoxedUp or BRILLIANT.MOD
:root
   order TX TY TZ RX RY RZ
   axis XYZ
   position 0 0 0  
   orientation 0 0 0 
:bonedata
  begin
     id 1 
     name lhipjoint
     direction 0.650112 -0.723553 0.232005 
     length 2.45805 
     axis 0 0 0  XYZ
  end
  begin
     id 2 
     name lfemur
     direction 0.34202 -0.939693 0  
     length 7.00073  
     axis 0 0 20  XYZ
    dof rx ry rz
    limits (-160.0 20.0)
           (-70.0 70.0)
           (-60.0 70.0)
  end
  begin
     id 3 
     name ltibia
     direction 0.34202 -0.939693 0   
     length 7.8748   
     axis 0 0 20   XYZ
    dof rx
    limits (-10.0 170.0)
  end
  begin
     id 4 
     name lfoot
     direction 0.0542825 -0.14914 0.987325   
     length 1.75978   
     axis -90 7.62852e-016 20   XYZ
    dof rx rz
    limits (-45.0 90.0)
           (-70.0 20.0)
  end
  begin
     id 5 
     name ltoes
     direction 1.53509e-011 -4.21906e-011 1   
     length 0.893912   
     axis -90 7.62852e-016 20   XYZ
    dof rx
    limits (-90.0 20.0)
  end
  begin
     id 6 
     name rhipjoint
     direction -0.637897 -0.733345 0.235145   
     length 2.42522  
     axis 0 0 0  XYZ 
  end
  begin
     id 7 
     name rfemur
     direction -0.34202 -0.939693 0   
     length 7.02549   
     axis 0 0 -20   XYZ
    dof rx ry rz
    limits (-160.0 20.0)
           (-70.0 70.0)
           (-70.0 60.0)
  end
  begin
     id 8 
     name rtibia
     direction -0.34202 -0.939693 0   
     length 7.71512   
     axis 0 0 -20   XYZ
    dof rx
    limits (-10.0 170.0)
 end
 begin
     id 9 
     name rfoot
     direction -0.0822618 -0.226012 0.970645   
     length 1.90014  
     axis -90 -7.62852e-016 -20   XYZ
    dof rx rz
    limits (-45.0 90.0)
           (-20.0 70.0)
  end
  begin
     id 10 
     name rtoes
     direction -1.53542e-011 -4.21872e-011 1   
     length 0.957341   
     axis -90 -7.62852e-016 -20   XYZ
    dof rx
    limits (-90.0 20.0)
  end
  begin
     id 11 
     name lowerback
     direction -0.0022947 0.999774 -0.0211557   
     length 1.89909   
     axis 0 0 0   XYZ
    dof rx ry rz
    limits (-20.0 45.0)
           (-30.0 30.0)
           (-30.0 30.0)
  end
  begin
     id 12 
     name upperback
     direction 0.0107737 0.998635 0.0511027   
     length 1.8853   
     axis 0 0 0   XYZ
    dof rx ry rz
    limits (-20.0 45.0)
           (-30.0 30.0)
           (-30.0 30.0)
  end
  begin
     id 13 
     name thorax
     direction 0.011824 0.998136 0.0598754   
     length 1.88911   
     axis 0 0 0   XYZ
    dof rx ry rz
    limits (-20.0 45.0)
           (-30.0 30.0)
           (-30.0 30.0)
  end
  begin
     id 14 
     name lowerneck
     direction -0.0685355 0.990319 0.120714   
     length 1.91222   
     axis 0 0 0   XYZ
    dof rx ry rz
    limits (-20.0 45.0)
           (-30.0 30.0)
           (-30.0 30.0)
  end
  begin
     id 15 
     name upperneck
     direction 0.0886204 0.955665 -0.280805   
     length 1.92526   
     axis 0 0 0   XYZ
    dof rx ry rz
    limits (-20.0 45.0)
           (-30.0 30.0)
           (-30.0 30.0)
  end
  begin
     id 16
     name head
     direction 0.0233423 0.993502 -0.111393  
     length 1.96056  
     axis 0 0 0   XYZ
    dof rx ry rz
    limits (-20.0 45.0)
           (-30.0 30.0)
           (-30.0 30.0)
  end
  begin
     id 17 
     name lclavicle
     direction 0.941873 0.32922 0.0670041  
     length 3.31705  
     axis 0 0 0   XYZ
    dof ry rz
    limits (-20.0 10.0)
           (0.0 20.0)
  end
  begin
     id 18 
     name lhumerus
     direction 1 -4.4898e-011 3.38707e-028   
     length 5.29277   
     axis 180 -30 -90   XYZ
    dof rx ry rz
    limits (-60.0 90.0)
           (-90.0 90.0)
           (-90.0 90.0)
  end
  begin
     id 19
     name lradius
     direction 1 -4.48952e-011 1.63213e-028   
     length 2.85226   
     axis 180 -30 -90   XYZ
    dof rx
    limits (-10.0 170.0)
  end
  begin
     id 20
     name lwrist
     direction 1 -4.49001e-011 1.27856e-027   
     length 1.42613   
     axis -1.61767e-015 90 90   XYZ
    dof ry
    limits (-180.0 0.0)
 end
  begin
     id 21 
     name lhand
     direction 1 -4.48976e-011 2.55931e-027   
     length 0.602097   
     axis -1.63363e-015 90 90   XYZ
    dof rx rz
    limits (-90.0 90.0)
           (-45.0 45.0)
  end
  begin
     id 22 
     name lfingers
     direction 1 -4.48986e-011 5.11684e-027   
     length 0.485426   
     axis -3.26723e-015 90 90   XYZ
    dof rx
    limits (0.0 90.0)
  end
  begin
     id 23
     name lthumb
     direction 0.707107 -6.34915e-011 0.707107   
     length 0.696978   
     axis -90 45 -2.25915e-014   XYZ
    dof rx rz
    limits (-45.0 45.0)
           (-45.0 45.0)
  end
  begin
     id 24 
     name rclavicle
     direction -0.939974 0.327078 0.0973096   
     length 3.10337  
     axis 0 0 0   XYZ 
    dof ry rz
    limits (-10.0 20.0)
           (-20.0 0.0)
  end
  begin
     id 25 
     name rhumerus
     direction -1 -4.48975e-011 1.83745e-027  
     length 5.13304   
     axis 180 30 90   XYZ
    dof rx ry rz
    limits (-90.0 60.0)
           (-90.0 90.0)
           (-90.0 90.0)
  end
  begin
     id 26 
     name rradius
     direction -1 -4.48977e-011 7.1775e-029   
     length 2.74305   
     axis 180 30 90   XYZ
    dof rx
    limits (-10.0 170.0)
  end
  begin
     id 27 
     name rwrist
     direction -1 -4.48977e-011 1.27963e-027   
     length 1.37152   
     axis -1.61767e-015 -90 -90   XYZ
    dof ry
    limits (-180.0 0.0)
  end
  begin
     id 28
     name rhand
     direction -1 -4.4888e-011 2.56782e-027   
     length 0.767976   
     axis -1.63363e-015 -90 -90   XYZ
    dof rx rz
    limits (-90.0 90.0)
           (-45.0 45.0)
  end
  begin
     id 29
     name rfingers
     direction -1 -4.48947e-011 5.12384e-027   
     length 0.619162   
     axis -3.26723e-015 -90 -90   XYZ
    dof rx
    limits (0.0 90.0)
  end
  begin
     id 30
     name rthumb
     direction -0.707107 -6.34857e-011 0.707107   
     length 0.888997   
     axis -90 -45 2.25915e-014   XYZ
    dof rx rz
    limits (-45.0 45.0)
           (-45.0 45.0)
  end
:hierarchy
  begin
    root lhipjoint rhipjoint lowerback
    lhipjoint lfemur
    lfemur ltibia
    ltibia lfoot
    lfoot ltoes
    rhipjoint rfemur
    rfemur rtibia
    rtibia rfoot
    rfoot rtoes
    lowerback upperback
    upperback thorax
    thorax lowerneck lclavicle rclavicle
    lowerneck upperneck
    upperneck head
    lclavicle lhumerus
    lhumerus lradius
    lradius lwrist
    lwrist lhand lthumb
    lhand lfingers
    rclavicle rhumerus
    rhumerus rradius
    rradius rwrist
    rwrist rhand rthumb
    rhand rfingers
  end

#!OML:ASF F:\VICON\USERDATA\INSTALL\rory3\rory3.ASF
:FULLY-SPECIFIED
:DEGREES
1106
root 0.0869696 16.5743 -2.22967 9.29553 1.74513 -0.406658
lowerback 24.5275 -1.14111 -3.58575
upperback 12.4559 -2.11203 1.86716
thorax 0.344435 -1.29412 4.55071
lowerneck 15.5454 -22.4221 -22.8501
upperneck -33.1383 -28.7959 44.6626
head -0.376665 -18.1546 17.6229
rclavicle 8.94531e-015 -1.78906e-015
rhumerus 49.5455 38.3691 -33.9361
rradius 59.6401
rwrist 16.1493
rhand -8.02534 9.03667
rfingers 7.12502
rthumb 17.8845 -20.161
lclavicle 8.94531e-015 -1.78906e-015
lhumerus 44.8342 -27.633 46.3609
lradius 43.4947
lwrist -11.2379
lhand 9.65061 23.9369
lfingers 7.12502
lthumb 34.7949 50.5406
rfemur -34.0039 0.797338 17.9519
rtibia 43.7741
rfoot -19.8521 -3.65015
rtoes -20.0359
lfemur -35.5827 -2.0992 -16.4165
ltibia 44.5985
lfoot -17.5821 -0.962501
ltoes -21.4302
1107
root 0.0809445 16.5753 -2.22864 9.30179 1.84788 -0.42698
lowerback 24.3558 -1.12668 -3.62019
upperback 12.5589 -2.09423 1.88174
thorax 0.542481 -1.29429 4.57327
lowerneck 14.7592 -22.2465 -22.5205
upperneck -32.6263 -28.4487 44.0826
head -0.43126 -17.8503 17.355
rclavicle 1.09332e-014 2.18663e-015
rhumerus 49.6216 38.1646 -33.9224
rradius 59.5617
rwrist 16.1912
rhand -8.1135 9.03272
rfingers 7.12502
rthumb 17.7996 -20.1727
lclavicle 1.09332e-014 2.18663e-015
lhumerus 45.1077 -27.4216 46.2865
lradius 43.4691
lwrist -11.249
lhand 9.8194 23.9354
lfingers 7.12502
lthumb 34.955 50.502
rfemur -33.9644 0.801054 17.9969
rtibia 43.7032
rfoot -19.784 -3.73015
rtoes -20.0221
lfemur -35.6062 -2.15415 -16.3548
ltibia 44.5766
lfoot -17.4897 -1.22964
ltoes -20.2567
1108
root 0.0794035 16.5801 -2.22048 9.32187 1.84832 -0.525626
lowerback 24.1768 -1.10364 -3.50069
upperback 12.5582 -2.037 1.87867
thorax 0.614477 -1.26148 4.48201
lowerneck 14.2815 -21.9535 -22.3758
upperneck -32.1098 -28.0286 43.5627
head -0.500883 -17.5237 17.2112
rclavicle -7.95139e-016 5.96354e-016
rhumerus 49.5618 38.1272 -33.9151
rradius 59.4587
rwrist 16.2309
rhand -8.32186 8.95158
rfingers 7.12502
rthumb 17.5991 -20.2719
lclavicle -7.95139e-016 5.96354e-016
lhumerus 45.2643 -27.4266 46.2187
lradius 43.5015
lwrist -11.1527
lhand 9.99322 24.2089
lfingers 7.12502
lthumb 35.1199 50.7368
rfemur -33.9107 0.884441 18.0988
rtibia 43.614
rfoot -19.7791 -3.77446
rtoes -20.3142
lfemur -35.5819 -2.1176 -16.2408
ltibia 44.5335
lfoot -17.506 -1.31502
ltoes -19.689
1109
root 0.0788878 16.5859 -2.2117 9.35729 1.83796 -0.572733
lowerback 24.0066 -1.05551 -3.39187
upperback 12.548 -1.95004 1.89334
thorax 0.670369 -1.21431 4.41042
lowerneck 13.6527 -21.6347 -22.141
upperneck -31.5669 -27.5399 42.8813
head -0.612551 -17.1359 16.9992
rclavicle 2.24627e-014 -1.59028e-014
rhumerus 49.4031 38.0178 -33.9476
rradius 59.3819
rwrist 16.2908
rhand -8.2889 8.91025
rfingers 7.12502
rthumb 17.6308 -20.3104
lclavicle 2.24627e-014 -1.59028e-014
lhumerus 45.4829 -27.4851 46.194
lradius 43.5076
lwrist -11.1027
lhand 10.1207 24.0633
lfingers 7.12502
lthumb 35.2408 50.5628
rfemur -33.8717 0.959807 18.138
rtibia 43.534
rfoot -19.7889 -3.78564
rtoes -20.0845
lfemur -35.5422 -2.09213 -16.1933
ltibia 44.4685
lfoot -17.5387 -1.22757
ltoes -20.0161
1110
root 0.0779156 16.5905 -2.20486 9.33526 1.88802 -0.521391
lowerback 24.1236 -1.03648 -3.30164
upperback 12.453 -1.91147 1.84202
thorax 0.497096 -1.18199 4.3007
lowerneck 12.9447 -21.2975 -21.8545
upperneck -30.9063 -27.03 42.1038
head -0.71101 -16.7193 16.7265
rclavicle 1.19271e-015 -1.41137e-014
rhumerus 49.1391 37.9791 -34.1241
rradius 59.3383
rwrist 16.2797
rhand -8.27146 8.86914
rfingers 7.12502
rthumb 17.6476 -20.35
lclavicle 1.19271e-015 -1.41137e-014
lhumerus 45.5449 -27.5964 46.2131
lradius 43.5462
lwrist -11.1663
lhand 9.85135 23.9067
lfingers 7.12502
lthumb 34.9853 50.4661
rfemur -33.7725 0.943318 18.0852
rtibia 43.4621
rfoot -19.8067 -3.79386
rtoes -20.1724
lfemur -35.4441 -2.15964 -16.2461
ltibia 44.3912
lfoot -17.5611 -1.15522
ltoes -20.4412
1111
root 0.0743722 16.594 -2.19899 9.3216 1.93084 -0.46129
lowerback 24.2532 -1.00813 -3.27901
upperback 12.3493 -1.87504 1.78557
thorax 0.311623 -1.15369 4.22494
lowerneck 12.6611 -20.8674 -22.0775
upperneck -30.4067 -26.5091 41.8649
head -0.698642 -16.3672 16.7668
rclavicle 1.27222e-014 -7.65321e-015
rhumerus 48.8667 37.9434 -34.3575
rradius 59.3046
rwrist 16.3403
rhand -8.12507 8.94265
rfingers 7.12502
rthumb 17.7885 -20.2637
lclavicle 1.27222e-014 -7.65321e-015
lhumerus 45.5957 -27.6542 46.185
lradius 43.5854
lwrist -11.2632
lhand 9.84235 23.8176
lfingers 7.12502
lthumb 34.9768 50.379
rfemur -33.6992 0.959236 18.0304
rtibia 43.4087
rfoot -19.7577 -3.87947
rtoes -20.5172
lfemur -35.375 -2.19356 -16.2998
ltibia 44.3242
lfoot -17.5021 -1.20868
ltoes -20.501
1112
root 0.07215 16.5954 -2.19611 9.33208 1.98647 -0.487292
lowerback 23.9444 -0.966438 -3.24174
upperback 12.5273 -1.8056 1.80689
thorax 0.650814 -1.12898 4.19709
lowerneck 12.003 -20.4001 -22.1942
upperneck -29.8943 -25.8452 41.6586
head -0.672698 -15.935 16.789
rclavicle 4.54223e-014 -3.71727e-014
rhumerus 48.8244 37.5631 -34.42
rradius 59.2899
rwrist 16.3827
rhand -7.99799 8.90098
rfingers 7.12502
rthumb 17.9108 -20.2943
lclavicle 4.54223e-014 -3.71727e-014
lhumerus 46.0428 -27.4334 46.0644
lradius 43.5694
lwrist -11.1868
lhand 9.98955 23.7846
lfingers 7.12502
lthumb 35.1164 50.3133
rfemur -33.6717 0.982264 18.0602
rtibia 43.3589
rfoot -19.69 -3.96551
rtoes -20.2492
lfemur -35.3641 -2.21365 -16.2529
ltibia 44.2715
lfoot -17.4496 -1.3267
ltoes -19.9287
1113
root 0.0702133 16.5962 -2.19462 9.34092 2.0492 -0.555541
lowerback 24.3554 -1.00849 -2.87177
upperback 12.2327 -1.79888 1.62862
thorax 0.0992501 -1.08294 3.81039
lowerneck 11.1751 -19.8971 -21.9473
upperneck -28.6636 -25.1794 40.8588
head -0.622864 -15.4069 16.4729
rclavicle -1.15295e-014 6.36111e-015
rhumerus 48.1493 37.6853 -35.1472
rradius 59.2978
rwrist 16.3891
rhand -8.11116 8.82995
rfingers 7.12502
rthumb 17.8019 -20.3752
lclavicle -1.15295e-014 6.36111e-015
lhumerus 46.0887 -27.7989 45.7514
lradius 43.6428
lwrist -10.9396
lhand 9.87494 23.9416
lfingers 7.12502
lthumb 35.0077 50.4959
rfemur -33.6423 1.01446 18.1402
rtibia 43.2975
rfoot -19.6585 -4.00449
rtoes -19.5222
lfemur -35.3717 -2.19861 -16.1694
ltibia 44.2317
lfoot -17.3692 -1.44827
ltoes -19.2592
1114
root 0.067334 16.5997 -2.19272 9.32587 2.09387 -0.594671
lowerback 23.9288 -0.924635 -3.07749
upperback 12.4651 -1.71792 1.84513
thorax 0.574271 -1.07528 4.12597
lowerneck 10.5101 -19.3128 -22.0147
upperneck -28.2577 -24.3426 40.2682
head -0.76959 -14.8452 16.4216
rclavicle -2.08724e-014 2.78299e-014
rhumerus 48.4144 37.3948 -34.705
rradius 59.328
rwrist 16.2796
rhand -8.10325 8.85894
rfingers 7.12502
rthumb 17.8095 -20.3455
lclavicle -2.08724e-014 2.78299e-014
lhumerus 46.3619 -27.4092 46.0623
lradius 43.5988
lwrist -11.0009
lhand 9.60028 23.8859
lfingers 7.12502
lthumb 34.7471 50.5006
rfemur -33.5652 1.06892 18.1866
rtibia 43.2267
rfoot -19.6308 -4.09205
rtoes -19.2143
lfemur -35.3285 -2.19989 -16.1202
ltibia 44.1711
lfoot -17.3364 -1.48273
ltoes -19.1694
1115
root 0.0653633 16.6044 -2.18848 9.29355 2.15999 -0.604376
lowerback 23.9298 -0.891249 -2.95222
upperback 12.449 -1.65042 1.82516
thorax 0.542969 -1.03319 4.01807
lowerneck 9.91633 -18.8005 -21.9005
upperneck -27.5573 -23.6327 39.6403
head -0.842525 -14.3495 16.2671
rclavicle 4.27387e-015 -3.8763e-015
rhumerus 47.9896 37.2212 -35.0418
rradius 59.3741
rwrist 16.3997
rhand -8.11686 8.94007
rfingers 7.12502
rthumb 17.7964 -20.2656
lclavicle 4.27387e-015 -3.8763e-015
lhumerus 46.6327 -27.5168 45.9103
lradius 43.6065
lwrist -10.938
lhand 9.48128 23.9842
lfingers 7.12502
lthumb 34.6342 50.6249
rfemur -33.4595 1.08303 18.2016
rtibia 43.157
rfoot -19.6111 -4.19055
rtoes -19.422
lfemur -35.2426 -2.25793 -16.0969
ltibia 44.0873
lfoot -17.3033 -1.40217
ltoes -19.7996
1116
root 0.0651166 16.6099 -2.18428 9.26092 2.19541 -0.537505
lowerback 23.9747 -0.878054 -2.91121
upperback 12.4256 -1.62729 1.76686
thorax 0.488912 -1.01536 3.9281
lowerneck 9.0996 -18.2329 -21.6581
upperneck -26.7343 -22.8154 38.8649
head -0.918737 -13.7744 16.0224
rclavicle 1.54058e-014 -1.26228e-014
rhumerus 47.7452 37.1324 -35.2992
rradius 59.3992
rwrist 16.3917
rhand -8.14895 8.89064
rfingers 7.12502
rthumb 17.7655 -20.3178
lclavicle 1.54058e-014 -1.26228e-014
lhumerus 46.8338 -27.5352 45.7443
lradius 43.6236
lwrist -10.8414
lhand 9.66375 23.9614
lfingers 7.12502
lthumb 34.8073 50.5622
rfemur -33.3576 1.06774 18.1282
rtibia 43.0963
rfoot -19.638 -4.17898
rtoes -19.6858
lfemur -35.123 -2.32037 -16.1681
ltibia 43.9784
lfoot -17.3376 -1.38585
ltoes -19.9267
1117
root 0.0630203 16.6125 -2.18061 9.24959 2.20947 -0.492476
lowerback 24.1443 -0.860668 -2.80385
upperback 12.3089 -1.58971 1.66314
thorax 0.265322 -0.980478 3.75314
lowerneck 8.12688 -17.63 -21.2988
upperneck -25.6426 -21.9546 37.9937
head -0.93194 -13.1566 15.6819
rclavicle -4.31363e-014 4.58199e-014
rhumerus 47.3454 37.1149 -35.7169
rradius 59.4125
rwrist 16.3828
rhand -8.23073 8.89788
rfingers 7.12502
rthumb 17.6868 -20.3177
lclavicle -4.31363e-014 4.58199e-014
lhumerus 46.9764 -27.6512 45.5582
lradius 43.6541
lwrist -10.7286
lhand 9.80366 23.7753
lfingers 7.12502
lthumb 34.9401 50.3453
rfemur -33.2833 1.11553 18.0771
rtibia 43.0484
rfoot -19.6438 -4.21619
rtoes -19.6746
lfemur -35.0329 -2.33122 -16.2131
ltibia 43.8735
lfoot -17.28 -1.50946
ltoes -19.005
